<?xml version="1.0" encoding="UTF-8" standalone="no"?>
<!-- Created with Inkscape (http://www.inkscape.org/) -->

<svg
   width="66.238625mm"
   height="158.75002mm"
   viewBox="0 0 66.238625 158.75002"
   version="1.1"
   id="svg5"
   xml:space="preserve"
   xmlns:inkscape="http://www.inkscape.org/namespaces/inkscape"
   xmlns:sodipodi="http://sodipodi.sourceforge.net/DTD/sodipodi-0.dtd"
   xmlns="http://www.w3.org/2000/svg"
   xmlns:svg="http://www.w3.org/2000/svg"><sodipodi:namedview
     id="namedview7"
     pagecolor="#ffffff"
     bordercolor="#000000"
     borderopacity="0.25"
     inkscape:showpageshadow="2"
     inkscape:pageopacity="0.0"
     inkscape:pagecheckerboard="0"
     inkscape:deskcolor="#d1d1d1"
     inkscape:document-units="mm"
     showgrid="false" /><defs
     id="defs2"><clipPath
       clipPathUnits="userSpaceOnUse"
       id="clipPath479"><rect
         style="fill:#ffffff;stroke-width:0.264402"
         id="rect481"
         width="66.676086"
         height="159.3927"
         x="-101.43799"
         y="52.373024"
         ry="0" /></clipPath></defs><g
     inkscape:label="Layer 1"
     inkscape:groupmode="layer"
     id="layer1"
     transform="translate(101.43798,-52.93664)"><path
       d="m -204.55313,132.31164 a 24.627086,24.627086 0 0 1 6.6336,8.48301 c 3.97017,8.18829 3.97017,18.20786 3.97017,27.8972 0,20.10294 0.84297,29.76562 19.84375,29.76562 a 6.614585,6.614585 0 0 1 0,13.22917 c -14.45407,0 -24.24594,-5.07963 -29.10272,-15.0976 -3.9702,-8.18829 -3.9702,-18.20786 -3.9702,-27.89719 0,-20.10295 -0.84297,-29.76563 -19.84375,-29.76563 a 6.614585,6.614585 0 0 1 0,-13.22917 c 19.00078,0 19.84375,-9.66268 19.84375,-29.765621 0,-9.689331 0,-19.708904 3.9702,-27.897196 4.85678,-10.017968 14.64865,-15.097596 29.10272,-15.097596 a 6.6145834,6.6145834 0 0 1 0,13.229166 c -19.00078,0 -19.84375,9.662683 -19.84375,29.765626 0,9.689331 0,19.708901 -3.97021,27.897191 a 24.627086,24.627086 0 0 1 -6.63356,8.48302 z m 162.739182,-6.61459 c -19.000779,0 -19.84375,-9.66268 -19.84375,-29.765621 0,-9.689331 0,-19.708904 -3.970205,-27.897196 -4.856774,-10.017968 -14.648648,-15.097596 -29.102712,-15.097596 a 6.6145834,6.6145834 0 0 0 0,13.229166 c 19.00078,0 19.843751,9.662683 19.843751,29.765626 0,9.689331 0,19.708901 3.970205,27.897191 a 24.627086,24.627086 0 0 0 6.633559,8.48302 24.627086,24.627086 0 0 0 -6.633601,8.48301 c -3.970163,8.18829 -3.970163,18.20786 -3.970163,27.8972 0,20.10294 -0.842971,29.76562 -19.843751,29.76562 a 6.614585,6.614585 0 0 0 0,13.22917 c 14.454064,0 24.245938,-5.07963 29.102712,-15.0976 3.970205,-8.18829 3.970205,-18.20786 3.970205,-27.89719 0,-20.10295 0.842971,-29.76563 19.84375,-29.76563 a 6.614585,6.614585 0 0 0 0,-13.22917 z"
       id="path9"
       style="display:inline;fill:#ffffff;stroke-width:0.826823"
       clip-path="url(#clipPath479)" /></g></svg>
